<svg xmlns="http://www.w3.org/2000/svg" width="1095" height="473" viewBox="0 0 1095 473" version="1.1"><path d="M 261.820 12.250 C 261.515 14.394, 258.902 15.022, 206.500 25.556 C 176.250 31.637, 150.537 36.869, 149.361 37.184 C 148.184 37.498, 146.624 37.386, 145.894 36.935 C 145.164 36.484, 144.102 36.500, 143.534 36.972 C 142.965 37.443, 125.175 42.215, 104 47.577 C 82.825 52.938, 64.487 57.257, 63.250 57.173 C 62.013 57.090, 61 57.418, 61 57.902 C 61 58.385, 59.538 59.012, 57.750 59.294 C 55.962 59.576, 52.475 60.331, 50 60.971 C 47.525 61.612, 44.780 62.517, 43.900 62.983 C 43.020 63.449, 36.608 64.154, 29.650 64.550 L 17 65.271 16.986 155.885 C 16.979 205.723, 16.701 247.512, 16.370 248.750 C 15.781 250.945, 15.960 251, 23.717 251 L 31.667 251 31.691 246.750 C 31.704 244.412, 34.970 211.675, 38.948 174 C 42.926 136.325, 46.601 104.375, 47.115 103 C 47.925 100.831, 54.562 97.834, 97.275 80.351 C 124.349 69.270, 147.358 59.919, 148.408 59.572 C 149.457 59.226, 173.982 56.494, 202.908 53.502 C 231.833 50.510, 256.962 47.851, 258.750 47.594 C 261.999 47.126, 262 47.128, 262 51.563 C 262 54.661, 262.415 56, 263.375 56 C 264.131 56, 265.031 54.594, 265.375 52.875 C 265.719 51.156, 266 42.213, 266 33 C 266 23.788, 265.719 14.844, 265.375 13.125 C 265.031 11.406, 264.163 10, 263.445 10 C 262.727 10, 261.995 11.012, 261.820 12.250 M 159 123.093 C 127.925 141.220, 99.887 157.530, 96.694 159.336 L 90.887 162.621 95.902 165.350 L 100.917 168.080 156.708 135.689 C 187.394 117.875, 213.474 102.787, 214.665 102.160 C 216.588 101.148, 223.321 104.768, 274.943 134.570 L 333.055 168.119 337.278 165.790 C 339.600 164.509, 341.436 163.049, 341.357 162.545 C 341.278 162.041, 313.378 145.529, 279.357 125.852 C 245.336 106.174, 217.050 90.088, 216.500 90.104 C 215.950 90.121, 190.075 104.966, 159 123.093 M 74.756 244.542 L 74.500 326.246 53.701 338.291 L 32.901 350.335 35.701 352.088 C 37.240 353.053, 78.745 377.069, 127.934 405.457 C 177.123 433.846, 217.981 456.838, 218.730 456.550 C 219.479 456.263, 236.609 446.413, 256.796 434.663 C 276.983 422.913, 317.350 399.450, 346.500 382.524 C 375.650 365.598, 399.882 351.401, 400.350 350.975 C 400.817 350.549, 399.242 349.080, 396.850 347.710 C 394.457 346.339, 385.453 341.119, 376.839 336.109 C 368.226 331.099, 360.712 327, 360.142 327 C 359.571 327, 358.969 329.363, 358.802 332.250 L 358.500 337.500 329.500 354.246 L 300.500 370.992 300.229 350.920 C 300.080 339.880, 299.563 330.994, 299.080 331.174 C 298.596 331.353, 293.444 334.200, 287.630 337.500 L 277.059 343.500 277.030 364.034 L 277 384.567 248.048 401.284 C 232.125 410.478, 218.850 418, 218.548 418 C 218.247 418, 217.919 414.738, 217.820 410.750 L 217.640 403.500 217.041 411 C 216.712 415.125, 216.616 379.350, 216.829 331.500 L 217.217 244.500 147.059 204 C 108.471 181.725, 76.475 163.351, 75.956 163.169 C 75.370 162.963, 74.915 193.836, 74.756 244.542 M 436.278 173.750 C 436.496 174.162, 455.259 205.212, 477.974 242.750 L 519.272 311 543.693 311 L 568.113 311 565.807 307.153 C 564.538 305.037, 545.725 274.007, 524 238.197 L 484.500 173.088 460.191 173.044 C 446.821 173.020, 436.060 173.338, 436.278 173.750 M 528 202.466 L 528 231.932 547.612 264.216 C 558.398 281.972, 567.398 296.687, 567.612 296.917 C 567.825 297.146, 568 269.358, 568 235.167 L 568 173 548 173 L 528 173 528 202.466 M 603.250 186.947 L 589 200.804 589 242.318 L 589 283.832 603.250 297.407 L 617.500 310.982 635.250 310.991 L 653 311 653 297 L 653 283 644 283 L 635 283 635 242 L 635 201 644 201 L 653 201 653 187 L 653 173 635.250 173.045 L 617.500 173.090 603.250 186.947 M 660 187 L 660 201 668.500 201 L 677 201 677 242 L 677 283 668.500 283 L 660 283 660 297 L 660 311 677.763 311 L 695.527 311 709.263 297.237 L 723 283.474 723 241.974 L 723 200.473 709.237 186.737 L 695.474 173 677.737 173 L 660 173 660 187 M 730.177 174.352 C 730.355 175.096, 741.525 206.146, 754.999 243.352 L 779.498 311 801.856 311 C 819.311 311, 824.117 310.726, 823.772 309.750 C 823.529 309.063, 812.811 278.012, 799.953 240.750 L 776.577 173 753.215 173 C 734.090 173, 729.912 173.245, 730.177 174.352 M 820.295 209.645 L 809.168 246.290 819.484 276.395 C 829.251 304.899, 829.863 306.340, 830.984 303.500 C 831.635 301.850, 842.255 272.253, 854.584 237.729 C 866.913 203.204, 877 174.517, 877 173.979 C 877 173.369, 868.404 173, 854.211 173 L 831.423 173 820.295 209.645 M 930.713 174.750 C 931.070 175.713, 939.354 197.200, 949.121 222.500 L 966.878 268.500 954.299 269 L 941.719 269.500 937.415 281.500 C 935.047 288.100, 933.086 294.063, 933.055 294.750 C 933.013 295.714, 938.110 296, 955.366 296 L 977.732 296 980.468 303.500 L 983.203 311 1006.660 311 C 1019.562 311, 1029.920 310.663, 1029.678 310.250 C 1029.435 309.837, 1017 278.788, 1002.044 241.250 L 974.850 173 952.457 173 C 931.548 173, 930.106 173.116, 930.713 174.750 M 923.994 182.500 C 923.357 184.150, 912.297 213.585, 899.418 247.911 C 886.538 282.237, 876 310.483, 876 310.680 C 876 310.877, 885.999 310.917, 898.220 310.769 L 920.441 310.500 932.720 273.018 C 939.474 252.403, 944.990 234.853, 944.979 234.018 C 944.967 233.183, 940.501 220.575, 935.055 206 C 925.629 180.771, 925.098 179.644, 923.994 182.500 M 436 248.809 L 436 311 456 311 L 476 311 476 281.542 L 476 252.083 456 219.351 L 436 186.618 436 248.809 M 87 208.287 L 87 221.574 93.250 225.153 C 96.688 227.121, 102.101 230.193, 105.279 231.978 L 111.058 235.224 110.779 221.493 L 110.500 207.763 99.500 201.403 C 93.450 197.904, 88.162 195.033, 87.750 195.021 C 87.338 195.009, 87 200.979, 87 208.287 M 335 201.346 L 324.500 207.534 324.222 221.241 L 323.944 234.948 335.472 228.282 L 347 221.615 347 208.308 C 347 200.988, 346.663 195.036, 346.250 195.079 C 345.837 195.123, 340.775 197.943, 335 201.346 M 134 235.329 L 134 248.659 145.155 255.079 C 151.290 258.611, 156.690 261.650, 157.155 261.833 C 157.620 262.017, 158 256.092, 158 248.667 L 158 235.167 146.534 228.583 C 140.228 224.963, 134.828 222, 134.534 222 C 134.240 222, 134 227.998, 134 235.329 M 287.750 228.705 L 276 235.389 276 248.694 C 276 256.012, 276.240 262, 276.534 262 C 276.828 262, 282.228 259.037, 288.534 255.417 L 300 248.833 300 235.417 C 300 228.037, 299.887 222.005, 299.750 222.010 C 299.613 222.016, 294.212 225.028, 287.750 228.705 M 87.221 262.525 L 87.500 276.237 98.500 282.597 C 104.550 286.096, 109.838 288.967, 110.250 288.979 C 110.662 288.991, 111 283.017, 111 275.704 L 111 262.408 99.775 255.954 C 93.601 252.404, 88.188 249.346, 87.746 249.157 C 87.304 248.968, 87.068 254.984, 87.221 262.525 M 182.011 262.635 L 182.023 276.500 192.988 282.750 C 199.019 286.188, 204.189 289, 204.477 289 C 204.765 289, 205 282.976, 205 275.613 L 205 262.225 195.750 256.969 C 190.662 254.078, 185.488 251.050, 184.250 250.241 L 182 248.770 182.011 262.635 M 335.250 255.637 L 324 262.169 324 275.610 L 324 289.051 327.103 287.447 C 328.809 286.564, 333.984 283.610, 338.603 280.882 L 347 275.923 347 262.461 C 347 255.058, 346.887 249.023, 346.750 249.052 C 346.613 249.081, 341.438 252.044, 335.250 255.637 M 239.762 256.305 L 229.023 262.500 229.012 275.750 C 229.005 283.038, 229.302 289, 229.672 289 C 230.041 289, 235.441 286.040, 241.672 282.422 L 253 275.843 253 262.922 C 253 253.222, 252.688 250.014, 251.750 250.055 C 251.063 250.085, 245.668 252.898, 239.762 256.305 M 134.221 289.570 L 134.500 303.289 145.474 309.644 C 151.509 313.140, 156.797 316, 157.224 316 C 157.651 316, 158 310.029, 158 302.731 L 158 289.462 152.250 286.248 C 149.088 284.481, 143.675 281.418, 140.221 279.443 L 133.943 275.852 134.221 289.570 M 288 282.972 L 276.500 289.682 276.853 302.591 C 277.047 309.691, 277.320 315.624, 277.461 315.775 C 277.601 315.926, 282.541 313.280, 288.438 309.897 C 294.336 306.513, 299.364 303.215, 299.612 302.569 C 299.860 301.923, 299.936 295.740, 299.781 288.828 L 299.500 276.263 288 282.972 M 87.011 316.635 L 87.023 330.500 97.988 336.750 C 104.019 340.188, 109.189 343, 109.477 343 C 109.765 343, 110 336.976, 110 329.613 L 110 316.225 100.750 310.969 C 95.662 308.078, 90.487 305.050, 89.250 304.241 L 87 302.770 87.011 316.635 M 181.221 317.207 L 181.500 330.413 188.500 334.502 C 192.350 336.750, 197.637 339.826, 200.250 341.337 L 205 344.084 204.964 330.292 L 204.927 316.500 193.954 310.250 C 187.919 306.813, 182.522 304, 181.961 304 C 181.306 304, 181.042 308.718, 181.221 317.207 M 240.500 310.403 L 229.500 316.763 229.221 330.456 L 228.943 344.148 235.221 340.542 C 238.675 338.559, 244.082 335.488, 247.238 333.718 L 252.976 330.500 252.988 317.250 C 252.995 309.962, 252.662 304.009, 252.250 304.021 C 251.838 304.033, 246.550 306.904, 240.500 310.403 M 334.762 310.305 L 324.023 316.500 324.012 329.750 C 324.005 337.038, 324.302 343, 324.672 343 C 325.041 343, 330.469 340.023, 336.735 336.385 C 344.895 331.646, 347.966 329.354, 347.563 328.303 C 347.253 327.497, 347 321.698, 347 315.418 C 347 309.138, 346.663 304.025, 346.250 304.055 C 345.837 304.085, 340.668 306.898, 334.762 310.305 M 435.557 328.223 C 434.701 329.445, 434 331.145, 434 332 C 434 332.855, 434.701 334.555, 435.557 335.777 L 437.113 338 732.485 338 C 999.672 338, 1028.007 337.850, 1029.429 336.429 C 1030.293 335.564, 1031 333.571, 1031 332 C 1031 330.429, 1030.293 328.436, 1029.429 327.571 C 1028.007 326.150, 999.672 326, 732.485 326 L 437.113 326 435.557 328.223 M 132.629 335.750 C 132.813 338.363, 133.238 344.325, 133.574 349 L 134.183 357.500 145.201 363.807 C 151.260 367.277, 156.306 369.977, 156.414 369.807 C 156.521 369.638, 156.428 363.853, 156.207 356.951 L 155.805 344.402 144.889 337.701 C 138.885 334.015, 133.595 331, 133.133 331 C 132.671 331, 132.444 333.137, 132.629 335.750 M 620 354.234 C 617.724 355.434, 617.473 356.219, 617.202 363.004 C 616.955 369.155, 617.207 370.678, 618.643 371.728 C 619.599 372.428, 622.761 373, 625.668 373 C 630.207 373, 631.186 372.646, 632.597 370.493 C 633.815 368.633, 634.127 366.435, 633.805 361.978 C 633.566 358.674, 632.876 355.476, 632.272 354.872 C 631.668 354.268, 629.222 353.581, 626.837 353.346 C 624.347 353.100, 621.435 353.478, 620 354.234 M 821 354.291 C 818.725 355.438, 818.473 356.209, 818.204 362.868 C 818.021 367.401, 818.353 370.721, 819.077 371.592 C 819.833 372.504, 822.272 373, 826 373 C 829.827 373, 832.161 372.511, 832.967 371.539 C 833.634 370.736, 834.420 368.289, 834.713 366.103 C 835.006 363.916, 834.958 360.592, 834.607 358.716 C 834.171 356.397, 833.157 354.937, 831.436 354.153 C 830.045 353.519, 827.690 353.007, 826.203 353.015 C 824.716 353.023, 822.375 353.597, 821 354.291 M 435 363.454 L 435 373 441.800 373 C 445.756 373, 449.102 372.498, 449.800 371.800 C 450.460 371.140, 451 369.205, 451 367.500 C 451 365.795, 450.469 363.869, 449.821 363.221 C 449.172 362.572, 448.609 360.344, 448.571 358.271 L 448.500 354.500 441.750 354.204 L 435 353.909 435 363.454 M 455 362.300 C 455 367.422, 455.459 371.059, 456.200 371.800 C 456.860 372.460, 459.920 373, 463 373 C 466.080 373, 469.140 372.460, 469.800 371.800 C 470.541 371.059, 471 367.422, 471 362.300 C 471 354.153, 470.955 354, 468.544 354 C 466.189 354, 466.076 354.298, 465.794 361.239 C 465.544 367.400, 465.220 368.532, 463.620 368.838 C 462.586 369.035, 461.355 368.590, 460.885 367.848 C 460.415 367.107, 460.024 363.688, 460.015 360.250 C 460.001 354.254, 459.898 354, 457.500 354 C 455.034 354, 455 354.113, 455 362.300 M 476 356 C 476 357.111, 476.667 358, 477.500 358 C 478.629 358, 479 359.210, 479 362.893 C 479 366.320, 478.551 367.958, 477.500 368.362 C 476.675 368.678, 476 369.851, 476 370.969 C 476 372.802, 476.633 373, 482.500 373 C 488.430 373, 489 372.816, 489 370.906 C 489 369.654, 488.197 368.603, 487 368.290 C 485.344 367.857, 485 366.926, 485 362.883 C 485 358.667, 485.273 358, 487 358 C 488.333 358, 489 357.333, 489 356 C 489 354.205, 488.333 354, 482.500 354 C 476.667 354, 476 354.205, 476 356 M 493 363.500 L 493 373 500.500 373 L 508 373 508 368 C 508 363.333, 507.833 363, 505.500 363 C 503.376 363, 503 363.462, 503 366.070 C 503 368.681, 502.664 369.091, 500.750 368.820 C 498.685 368.526, 498.476 367.903, 498.206 361.250 C 497.924 354.298, 497.812 354, 495.456 354 C 493.020 354, 493 354.079, 493 363.500 M 512.212 363.250 L 512.500 372.500 519.135 372.793 C 524.198 373.017, 526.154 372.703, 527.385 371.472 C 528.552 370.306, 529 367.988, 529 363.129 C 529 359.229, 528.496 355.896, 527.800 355.200 C 527.085 354.485, 523.636 354, 519.262 354 L 511.925 354 512.212 363.250 M 533 356 C 533 357.333, 533.667 358, 535 358 C 536.727 358, 537 358.667, 537 362.883 C 537 366.926, 536.656 367.857, 535 368.290 C 533.803 368.603, 533 369.654, 533 370.906 C 533 372.816, 533.570 373, 539.500 373 C 545.430 373, 546 372.816, 546 370.906 C 546 369.654, 545.197 368.603, 544 368.290 C 542.376 367.865, 542 366.926, 542 363.290 C 542 359.654, 542.376 358.715, 544 358.290 C 545.107 358, 546 356.926, 546 355.883 C 546 354.232, 545.199 354, 539.500 354 C 533.667 354, 533 354.205, 533 356 M 550 363.500 L 550 373 553 373 C 555.948 373, 556.001 372.910, 556.032 367.750 L 556.063 362.500 558.532 365.306 C 559.889 366.849, 561 369.211, 561 370.556 C 561 372.605, 561.485 373, 564 373 L 567 373 567 363.500 L 567 354 564 354 C 561.292 354, 561 354.312, 561 357.196 L 561 360.392 557.702 357.196 C 555.889 355.438, 553.414 354, 552.202 354 C 550.087 354, 550 354.376, 550 363.500 M 572.571 355.571 C 571.477 356.666, 571 359.047, 571 363.416 C 571 368.224, 571.427 370.077, 572.829 371.345 C 574.115 372.509, 576.490 373, 580.829 373 L 587 373 587 368 C 587 363.370, 586.820 363, 584.566 363 C 582.655 363, 582.065 363.590, 581.816 365.750 C 581.589 367.728, 580.938 368.500, 579.500 368.500 C 577.767 368.500, 577.500 367.833, 577.500 363.500 L 577.500 358.500 581.250 358.190 C 584.188 357.946, 585 357.459, 585 355.940 C 585 354.258, 584.277 354, 579.571 354 C 575.970 354, 573.614 354.529, 572.571 355.571 M 597 357.806 C 597 360.295, 597.865 362.784, 599.500 365 C 600.875 366.864, 602 369.426, 602 370.694 C 602 372.590, 602.534 373, 605 373 C 607.359 373, 608 372.561, 608 370.947 C 608 369.818, 609.125 367.238, 610.500 365.215 C 612.073 362.899, 613 360.139, 613 357.768 C 613 354.415, 612.724 354, 610.500 354 C 608.427 354, 608 354.479, 608 356.809 C 608 358.354, 607.325 360.491, 606.500 361.559 C 605.015 363.480, 604.985 363.480, 603.500 361.559 C 602.675 360.491, 602 358.354, 602 356.809 C 602 354.479, 601.573 354, 599.500 354 C 597.271 354, 597 354.413, 597 357.806 M 638 362.300 C 638 367.422, 638.459 371.059, 639.200 371.800 C 639.860 372.460, 642.920 373, 646 373 C 649.080 373, 652.140 372.460, 652.800 371.800 C 653.541 371.059, 654 367.422, 654 362.300 C 654 354.153, 653.955 354, 651.544 354 C 649.189 354, 649.076 354.298, 648.794 361.239 C 648.544 367.400, 648.220 368.532, 646.620 368.838 C 645.586 369.035, 644.355 368.590, 643.885 367.848 C 643.415 367.107, 643.024 363.688, 643.015 360.250 C 643.001 354.254, 642.898 354, 640.500 354 C 638.034 354, 638 354.113, 638 362.300 M 659 363.500 C 659 372.967, 659.009 373, 661.500 373 C 663.611 373, 664 372.533, 664 370 C 664 367.333, 664.333 367, 667 367 C 669.667 367, 670 367.333, 670 370 C 670 372.667, 670.333 373, 673 373 C 675.818 373, 676 372.764, 676 369.122 C 676 366.946, 675.361 364.714, 674.542 364.035 C 673.580 363.237, 673.283 361.836, 673.667 359.915 C 674.006 358.222, 673.727 356.376, 673.002 355.502 C 672.131 354.453, 669.831 354, 665.378 354 L 659 354 659 363.500 M 686 363.500 L 686 373 692.977 373 C 699.321 373, 700.103 372.773, 701.597 370.493 C 702.820 368.626, 703.127 366.434, 702.800 361.913 C 702.527 358.138, 701.820 355.499, 700.930 354.936 C 700.144 354.438, 696.462 354.024, 692.750 354.015 L 686 354 686 363.500 M 707 363.500 L 707 373 710 373 C 712.667 373, 713 372.667, 713 370 C 713 367.467, 713.389 367, 715.500 367 C 717.611 367, 718 367.467, 718 370 C 718 372.667, 718.333 373, 721 373 C 723.818 373, 724 372.764, 724 369.122 C 724 366.907, 723.361 364.715, 722.510 364.008 C 721.586 363.242, 721.240 361.891, 721.600 360.458 C 721.919 359.185, 721.885 357.212, 721.523 356.072 C 720.941 354.238, 720.067 354, 713.933 354 L 707 354 707 363.500 M 728 363.500 L 728 373 735 373 C 741.264 373, 742 372.796, 742 371.057 C 742 369.487, 741.186 369.056, 737.750 368.807 C 734.776 368.592, 733.500 368.050, 733.500 367 C 733.500 366.039, 734.667 365.387, 736.750 365.187 C 739.190 364.951, 740 364.391, 740 362.937 C 740 361.390, 739.295 361, 736.500 361 C 734.056 361, 733 360.548, 733 359.500 C 733 358.389, 734.167 358, 737.500 358 C 741.333 358, 742 357.704, 742 356 C 742 354.190, 741.333 354, 735 354 L 728 354 728 363.500 M 747.693 358.750 C 746.756 361.363, 745.992 365.637, 745.995 368.250 C 746 372.649, 746.185 373, 748.500 373 C 750.500 373, 751 372.500, 751 370.500 C 751 368.389, 751.467 368, 754 368 C 756.533 368, 757 368.389, 757 370.500 C 757 372.500, 757.500 373, 759.500 373 C 761.863 373, 762 372.699, 762 367.520 C 762 364.506, 761.276 360.231, 760.391 358.020 C 758.833 354.126, 758.636 354, 754.089 354 L 749.395 354 747.693 358.750 M 767 363.500 C 767 372.967, 767.009 373, 769.500 373 C 771.833 373, 772 372.667, 772 368 C 772 365.250, 772.402 363, 772.893 363 C 773.384 363, 774.045 363.675, 774.362 364.500 C 774.678 365.325, 775.464 366, 776.108 366 C 776.753 366, 777.877 365.212, 778.608 364.250 C 779.767 362.723, 779.940 363.170, 779.968 367.750 C 779.999 372.910, 780.052 373, 783 373 L 786 373 786 363.500 L 786 354 783.026 354 C 780.696 354, 779.696 354.688, 778.411 357.173 L 776.770 360.346 774.907 357.923 C 773.883 356.590, 773.034 355.163, 773.022 354.750 C 773.010 354.337, 771.650 354, 770 354 L 767 354 767 363.500 M 797 363.500 C 797 372.967, 797.009 373, 799.500 373 C 801.690 373, 802 372.567, 802 369.500 C 802 366.278, 802.238 366, 805 366 C 807.773 366, 808 366.270, 808 369.566 C 808 372.867, 808.205 373.109, 810.750 372.816 L 813.500 372.500 813.788 363.250 L 814.075 354 811.038 354 C 808.222 354, 808 354.261, 808 357.566 C 808 360.867, 807.795 361.109, 805.250 360.816 C 802.959 360.553, 802.448 359.958, 802.187 357.250 C 801.927 354.558, 801.455 354, 799.437 354 C 797.025 354, 797 354.099, 797 363.500 M 839 363.500 C 839 372.967, 839.009 373, 841.500 373 C 843.833 373, 844 372.667, 844 368 C 844 365.250, 844.402 363, 844.893 363 C 845.384 363, 846.045 363.675, 846.362 364.500 C 846.678 365.325, 847.640 366, 848.500 366 C 849.360 366, 850.322 365.325, 850.638 364.500 C 850.955 363.675, 851.616 363, 852.107 363 C 852.598 363, 853 365.250, 853 368 C 853 372.667, 853.167 373, 855.500 373 C 857.991 373, 858 372.967, 858 363.500 L 858 354 855.026 354 C 852.732 354, 851.696 354.687, 850.500 357 C 849.647 358.650, 848.747 360, 848.500 360 C 848.253 360, 847.353 358.650, 846.500 357 C 845.304 354.687, 844.268 354, 841.974 354 L 839 354 839 363.500 M 863 363.500 L 863 373 870 373 C 876.264 373, 877 372.796, 877 371.057 C 877 369.488, 876.186 369.056, 872.759 368.807 C 869.665 368.583, 868.427 368.027, 868.185 366.750 C 867.919 365.348, 868.564 365, 871.427 365 C 874.333 365, 875 364.627, 875 363 C 875 361.381, 874.333 361, 871.500 361 C 869.056 361, 868 360.548, 868 359.500 C 868 358.389, 869.167 358, 872.500 358 C 876.333 358, 877 357.704, 877 356 C 877 354.190, 876.333 354, 870 354 L 863 354 863 363.500 M 887 363.500 L 887 373 894.300 373 C 898.644 373, 902.086 372.514, 902.800 371.800 C 903.460 371.140, 904 369.101, 904 367.269 C 904 365.237, 903.418 363.714, 902.507 363.364 C 901.513 362.983, 901.209 362.016, 901.597 360.468 C 901.918 359.190, 901.885 357.212, 901.523 356.072 C 900.941 354.238, 900.067 354, 893.933 354 L 887 354 887 363.500 M 908 363.500 L 908 373 915 373 C 921.264 373, 922 372.796, 922 371.057 C 922 369.488, 921.186 369.056, 917.759 368.807 C 914.665 368.583, 913.427 368.027, 913.185 366.750 C 912.919 365.348, 913.564 365, 916.427 365 C 919.333 365, 920 364.627, 920 363 C 920 361.381, 919.333 361, 916.500 361 C 914.056 361, 913 360.548, 913 359.500 C 913 358.389, 914.167 358, 917.500 358 C 921.333 358, 922 357.704, 922 356 C 922 354.190, 921.333 354, 915 354 L 908 354 908 363.500 M 925 356 C 925 357.467, 925.667 358, 927.500 358 C 929.944 358, 930 358.167, 930 365.500 L 930 373 933 373 L 936 373 936 365.500 C 936 358.167, 936.056 358, 938.500 358 C 940.333 358, 941 357.467, 941 356 C 941 354.167, 940.333 354, 933 354 C 925.667 354, 925 354.167, 925 356 M 943 355.934 C 943 357.300, 943.807 357.960, 945.750 358.184 C 948.436 358.493, 948.507 358.668, 948.794 365.750 C 949.076 372.702, 949.188 373, 951.544 373 C 953.934 373, 954 372.798, 954 365.500 C 954 358.167, 954.056 358, 956.500 358 C 958.333 358, 959 357.467, 959 356 C 959 354.167, 958.333 354, 951 354 C 943.758 354, 943 354.183, 943 355.934 M 963 363.500 L 963 373 970 373 C 976.264 373, 977 372.796, 977 371.057 C 977 369.487, 976.186 369.056, 972.750 368.807 C 969.776 368.592, 968.500 368.050, 968.500 367 C 968.500 366.039, 969.667 365.387, 971.750 365.187 C 974.190 364.951, 975 364.391, 975 362.937 C 975 361.381, 974.294 361, 971.417 361 C 968.997 361, 967.967 360.594, 968.244 359.750 C 968.470 359.063, 970.533 358.362, 972.828 358.193 C 976.187 357.945, 977 357.506, 977 355.943 C 977 354.204, 976.264 354, 970 354 L 963 354 963 363.500 M 981 363.456 L 981 373 984 373 C 986.667 373, 987 372.667, 987 370 C 987 367.333, 987.333 367, 990 367 C 992.667 367, 993 367.333, 993 370 C 993 372.533, 993.389 373, 995.500 373 C 997.792 373, 998 372.630, 998 368.550 C 998 366.083, 997.443 363.743, 996.750 363.300 C 996.063 362.860, 995.500 360.700, 995.500 358.500 L 995.500 354.500 988.250 354.206 L 981 353.912 981 363.456 M 437 363.050 L 437 371.100 442.750 370.800 C 448.257 370.513, 448.514 370.378, 448.828 367.628 C 449.009 366.049, 448.671 364.271, 448.078 363.678 C 447.485 363.085, 447 361.356, 447 359.835 C 447 358.125, 446.262 356.675, 445.066 356.035 C 444.002 355.466, 441.752 355, 440.066 355 L 437 355 437 363.050 M 457.195 361.500 C 457.105 365.350, 457.366 369.027, 457.775 369.671 C 458.185 370.315, 459.658 371.127, 461.049 371.476 C 462.440 371.825, 464.798 371.647, 466.289 371.080 C 468.940 370.072, 468.996 369.878, 468.820 362.275 L 468.640 354.500 468.070 361.904 C 467.592 368.112, 467.178 369.420, 465.507 370.002 C 464.410 370.384, 462.385 370.397, 461.007 370.031 C 458.688 369.415, 458.457 368.809, 457.930 361.933 L 457.360 354.500 457.195 361.500 M 479 355.891 C 481.304 356.529, 481.523 357.104, 481.794 363.221 C 482.086 369.806, 482.066 369.862, 479.294 370.279 C 477.757 370.511, 478.975 370.706, 482 370.714 C 485.025 370.721, 486.488 370.533, 485.250 370.294 C 483.177 369.895, 483 369.320, 483 363 C 483 356.680, 483.177 356.105, 485.250 355.706 C 486.488 355.467, 485.025 355.256, 482 355.236 C 478.275 355.211, 477.307 355.423, 479 355.891 M 495.201 362.750 L 495 371 500.500 371 L 506 371 505.850 367.750 C 505.711 364.725, 505.671 364.690, 505.284 367.250 C 504.902 369.769, 504.499 370, 500.476 370 L 496.084 370 495.743 362.250 L 495.402 354.500 495.201 362.750 M 515 363 L 515 371 519.800 371 C 522.440 371, 525.140 370.460, 525.800 369.800 C 526.460 369.140, 527 366.247, 527 363.371 C 527 359.952, 526.456 357.599, 525.429 356.571 C 524.473 355.616, 522.121 355, 519.429 355 L 515 355 515 363 M 536.750 355.706 C 538.823 356.105, 539 356.680, 539 363 C 539 369.320, 538.823 369.895, 536.750 370.294 C 535.513 370.533, 536.750 370.728, 539.500 370.728 C 542.250 370.728, 543.487 370.533, 542.250 370.294 C 540.177 369.895, 540 369.320, 540 363 C 540 356.680, 540.177 356.105, 542.250 355.706 C 543.487 355.467, 542.250 355.272, 539.500 355.272 C 536.750 355.272, 535.513 355.467, 536.750 355.706 M 553.191 363 L 553.353 371.500 553.927 364.589 L 554.500 357.678 559.095 363.089 C 561.623 366.065, 563.950 369.175, 564.266 370 C 564.583 370.825, 564.802 367.675, 564.753 363 C 564.669 354.998, 564.630 354.848, 564.082 360.452 L 563.500 366.403 558.264 360.452 L 553.028 354.500 553.191 363 M 575.853 355.670 C 574.947 355.910, 573.940 357.096, 573.616 358.304 C 573.292 359.512, 573.021 361.992, 573.014 363.816 C 573.006 365.639, 573.466 368.002, 574.035 369.066 C 574.845 370.579, 576.150 371, 580.035 371 L 585 371 584.850 367.750 C 584.711 364.725, 584.671 364.690, 584.284 367.250 C 583.901 369.774, 583.503 370, 579.434 370 L 575 370 575 363.559 L 575 357.118 579.250 356.166 C 582.711 355.391, 582.943 355.216, 580.500 355.223 C 578.850 355.228, 576.759 355.429, 575.853 355.670 M 599.150 357.346 C 599.067 358.911, 599.772 361.498, 600.716 363.096 C 601.659 364.693, 602.784 366, 603.216 366 C 603.647 366, 604 367.125, 604 368.500 C 604 369.875, 604.450 371, 605 371 C 605.550 371, 606 370.080, 606 368.956 C 606 367.832, 607.125 365.699, 608.500 364.217 C 610.280 362.297, 610.957 360.509, 610.850 358.010 C 610.711 354.746, 610.670 354.704, 610.268 357.410 C 610.031 359.011, 609.146 361.373, 608.303 362.660 C 607.460 363.947, 605.973 365, 605 365 C 604.027 365, 602.540 363.947, 601.697 362.660 C 600.854 361.373, 599.969 359.011, 599.732 357.410 L 599.300 354.500 599.150 357.346 M 620.571 356.571 C 619.575 357.568, 619 359.917, 619 362.990 C 619 365.655, 619.268 368.536, 619.597 369.391 C 619.925 370.246, 621.677 371.224, 623.491 371.564 C 625.305 371.905, 627.737 371.676, 628.895 371.056 C 630.691 370.095, 631 369.011, 631 363.665 C 631 360.126, 630.478 356.878, 629.800 356.200 C 629.140 355.540, 627.147 355, 625.371 355 C 623.596 355, 621.436 355.707, 620.571 356.571 M 640.195 361.500 C 640.105 365.350, 640.366 369.027, 640.775 369.671 C 641.185 370.315, 642.658 371.127, 644.049 371.476 C 645.440 371.825, 647.798 371.647, 649.289 371.080 C 651.940 370.072, 651.996 369.878, 651.820 362.275 L 651.640 354.500 651.070 361.904 C 650.592 368.112, 650.178 369.420, 648.507 370.002 C 647.410 370.384, 645.385 370.397, 644.007 370.031 C 641.688 369.415, 641.457 368.809, 640.930 361.933 L 640.360 354.500 640.195 361.500 M 661.160 363.250 C 661.248 367.788, 661.502 370.038, 661.723 368.250 C 662.117 365.077, 662.243 365, 667.063 365 C 671.882 365, 672 365.072, 672 368 C 672 369.650, 672.450 371, 673 371 C 673.550 371, 674 370.295, 674 369.434 C 674 368.573, 673.459 366.886, 672.799 365.684 C 672.138 364.483, 671.534 361.995, 671.457 360.156 C 671.379 358.318, 670.682 356.412, 669.908 355.922 C 669.133 355.432, 666.813 355.024, 664.750 355.015 L 661 355 661.160 363.250 M 688 363.050 L 688 371.100 693.750 370.800 L 699.500 370.500 699.804 364.026 C 700.049 358.789, 699.774 357.308, 698.362 356.276 C 697.403 355.574, 694.679 355, 692.309 355 L 688 355 688 363.050 M 709.160 363.250 C 709.248 367.788, 709.502 370.038, 709.723 368.250 C 710.117 365.080, 710.247 365, 715.035 365 C 719.713 365, 719.987 365.152, 720.881 368.250 C 721.787 371.386, 721.823 371.405, 721.910 368.789 C 721.959 367.299, 721.415 365.532, 720.699 364.864 C 719.983 364.195, 719.574 362.450, 719.789 360.985 C 720.023 359.393, 719.512 357.655, 718.518 356.661 C 717.534 355.677, 715.257 355, 712.929 355 L 709 355 709.160 363.250 M 730 363 L 730 371 735.250 370.820 L 740.500 370.640 735.750 370.265 C 731.268 369.912, 731 369.728, 731 367.006 C 731 364.408, 731.374 364.082, 734.750 363.728 L 738.500 363.336 734.750 363.168 C 731.175 363.008, 731 362.839, 731 359.555 C 731 356.164, 731.075 356.104, 735.750 355.735 L 740.500 355.360 735.250 355.180 L 730 355 730 363 M 750.348 357.592 C 749.377 359.074, 748.538 362.609, 748.389 365.842 C 748.245 368.954, 748.356 370.488, 748.634 369.250 C 749.073 367.295, 749.776 367, 754 367 C 758.246 367, 758.916 367.285, 759.294 369.250 C 759.533 370.488, 759.787 369.250, 759.860 366.500 C 759.950 363.090, 759.363 360.467, 758.011 358.250 C 756.843 356.335, 755.212 355, 754.038 355 C 752.942 355, 751.282 356.166, 750.348 357.592 M 769.735 355.598 C 769.331 356.002, 769.081 359.746, 769.180 363.917 L 769.360 371.500 769.930 364 L 770.500 356.500 772.818 359.750 C 774.093 361.538, 775.684 363, 776.352 363 C 777.021 363, 778.453 361.538, 779.534 359.750 L 781.500 356.500 781.794 363.750 C 781.955 367.738, 782.518 371, 783.044 371 C 783.570 371, 784 367.652, 784 363.559 C 784 358.918, 783.556 355.843, 782.819 355.388 C 782.143 354.970, 781.094 355.478, 780.363 356.579 C 779.661 357.636, 778.392 359.400, 777.543 360.500 C 776.170 362.279, 775.892 362.324, 775.039 360.910 C 774.511 360.035, 773.268 358.317, 772.275 357.091 C 771.283 355.866, 770.140 355.194, 769.735 355.598 M 799.343 363 C 799.339 367.675, 799.513 369.813, 799.728 367.750 L 800.121 364 805 364 L 809.879 364 810.272 367.750 C 810.487 369.813, 810.661 367.675, 810.657 363 C 810.654 358.325, 810.478 356.413, 810.268 358.750 L 809.885 363 805 363 L 800.115 363 799.732 358.750 C 799.522 356.413, 799.346 358.325, 799.343 363 M 821.750 356.080 C 820.427 356.851, 820 358.410, 820 362.468 C 820 365.421, 820.268 368.536, 820.597 369.391 C 820.925 370.246, 822.677 371.224, 824.491 371.564 C 826.305 371.905, 828.737 371.676, 829.895 371.056 C 831.691 370.095, 832 369.011, 832 363.665 C 832 360.126, 831.478 356.878, 830.800 356.200 C 830.140 355.540, 828.227 355.014, 826.550 355.030 C 824.873 355.047, 822.712 355.519, 821.750 356.080 M 841.745 355.588 C 841.335 355.998, 841.081 359.746, 841.180 363.917 L 841.360 371.500 841.930 364 L 842.500 356.500 844.818 359.750 C 846.093 361.538, 847.755 363, 848.512 363 C 849.268 363, 850.684 361.650, 851.659 360 C 852.634 358.350, 853.764 357, 854.172 357 C 854.579 357, 855.078 360.262, 855.281 364.250 L 855.649 371.500 855.575 363.580 C 855.534 359.224, 855.050 355.518, 854.500 355.344 C 853.950 355.169, 852.436 356.668, 851.135 358.675 L 848.770 362.322 845.631 358.582 C 843.904 356.526, 842.155 355.178, 841.745 355.588 M 865 363 L 865 371 870.250 370.820 L 875.500 370.640 870.750 370.265 C 866.268 369.912, 866 369.728, 866 367.006 C 866 364.408, 866.374 364.082, 869.750 363.728 L 873.500 363.336 869.750 363.168 C 866.175 363.008, 866 362.839, 866 359.555 C 866 356.164, 866.075 356.104, 870.750 355.735 L 875.500 355.360 870.250 355.180 L 865 355 865 363 M 890 363.050 L 890 371.100 895.750 370.800 C 901.437 370.503, 901.503 370.465, 901.814 367.243 C 902.018 365.127, 901.632 363.796, 900.712 363.443 C 899.794 363.091, 899.472 361.984, 899.795 360.294 C 900.137 358.502, 899.718 357.267, 898.455 356.344 C 897.445 355.605, 895.129 355, 893.309 355 L 890 355 890 363.050 M 910 363 L 910 371 915.250 370.820 L 920.500 370.640 915.750 370.265 C 911.268 369.912, 911 369.728, 911 367.006 C 911 364.408, 911.374 364.082, 914.750 363.728 L 918.500 363.336 914.750 363.168 C 911.175 363.008, 911 362.839, 911 359.555 C 911 356.164, 911.075 356.104, 915.750 355.735 L 920.500 355.360 915.250 355.180 L 910 355 910 363 M 929.250 355.716 C 931.966 356.128, 932 356.225, 932 363.566 C 932 367.855, 932.423 371, 933 371 C 933.577 371, 934 367.855, 934 363.566 C 934 356.225, 934.034 356.128, 936.750 355.716 C 938.263 355.487, 936.575 355.300, 933 355.300 C 929.425 355.300, 927.737 355.487, 929.250 355.716 M 947.709 355.720 L 950.918 356.121 951.258 363.810 L 951.598 371.500 951.799 363.813 L 952 356.127 955.250 355.723 C 957.038 355.502, 955.350 355.320, 951.500 355.320 C 947.650 355.320, 945.944 355.500, 947.709 355.720 M 965 363 L 965 371 970.250 370.820 L 975.500 370.640 970.750 370.265 C 966.268 369.912, 966 369.728, 966 367.006 C 966 364.408, 966.374 364.082, 969.750 363.728 L 973.500 363.336 969.750 363.168 C 966.175 363.008, 966 362.839, 966 359.555 C 966 356.164, 966.075 356.104, 970.750 355.735 L 975.500 355.360 970.250 355.180 L 965 355 965 363 M 984.160 363.250 C 984.248 367.788, 984.503 370.014, 984.727 368.198 C 985.129 364.938, 985.195 364.900, 989.812 365.198 C 994.107 365.475, 994.542 365.745, 995.127 368.500 L 995.763 371.500 995.882 368.219 C 995.950 366.328, 995.440 364.722, 994.679 364.430 C 993.825 364.103, 993.520 362.818, 993.816 360.799 C 994.146 358.553, 993.761 357.298, 992.446 356.337 C 991.441 355.602, 989.129 355, 987.309 355 L 984 355 984.160 363.250 M 438 359.500 C 438 362.535, 438.321 363, 440.418 363 C 441.748 363, 443.548 362.727, 444.418 362.393 C 445.288 362.059, 446 360.762, 446 359.510 C 446 357.994, 445.248 357.032, 443.750 356.630 C 442.512 356.299, 440.712 356.021, 439.750 356.014 C 438.414 356.003, 438 356.828, 438 359.500 M 516 363.055 L 516 370.110 520.750 369.805 L 525.500 369.500 525.800 363.744 C 526.082 358.336, 525.942 357.929, 523.485 356.994 C 522.047 356.447, 519.774 356, 518.435 356 C 516.085 356, 516 356.247, 516 363.055 M 621.200 357.200 C 620.540 357.860, 620 360.796, 620 363.725 C 620 368.484, 620.265 369.150, 622.500 370 C 624.080 370.601, 625.920 370.601, 627.500 370 C 629.778 369.134, 630 368.524, 630 363.132 C 630 358.658, 629.614 357.066, 628.418 356.607 C 627.548 356.273, 625.838 356, 624.618 356 C 623.398 356, 621.860 356.540, 621.200 357.200 M 662 360.060 L 662 364.121 665.750 363.810 C 669.055 363.537, 669.539 363.157, 669.830 360.609 C 670.018 358.966, 669.586 357.353, 668.830 356.874 C 668.099 356.410, 666.263 356.024, 664.750 356.015 C 662.199 356.001, 662 356.294, 662 360.060 M 689.667 356.667 C 689.300 357.033, 689 360.208, 689 363.721 L 689 370.110 693.750 369.805 L 698.500 369.500 698.794 363.378 C 699.066 357.722, 698.914 357.210, 696.794 356.642 C 695.532 356.304, 693.563 356.021, 692.417 356.014 C 691.271 356.006, 690.033 356.300, 689.667 356.667 M 710 360 C 710 363.897, 710.089 364, 713.465 364 C 715.867 364, 717.247 363.407, 717.965 362.066 C 718.534 361.002, 719 359.909, 719 359.637 C 719 359.365, 718.293 358.436, 717.429 357.571 C 716.564 356.707, 714.539 356, 712.929 356 C 710.179 356, 710 356.244, 710 360 M 751.627 358.250 C 750.847 359.488, 749.906 361.512, 749.537 362.750 C 748.902 364.876, 749.145 365, 753.933 365 C 756.720 365, 759 364.579, 759 364.065 C 759 363.551, 758.522 361.873, 757.937 360.335 C 757.353 358.798, 756.341 357.201, 755.687 356.786 C 755.034 356.370, 754.173 356.024, 753.773 356.015 C 753.373 356.007, 752.408 357.012, 751.627 358.250 M 822.200 357.200 C 821.540 357.860, 821 360.796, 821 363.725 C 821 368.484, 821.265 369.150, 823.500 370 C 825.080 370.601, 826.920 370.601, 828.500 370 C 830.778 369.134, 831 368.524, 831 363.132 C 831 358.658, 830.614 357.066, 829.418 356.607 C 828.548 356.273, 826.838 356, 825.618 356 C 824.398 356, 822.860 356.540, 822.200 357.200 M 891 359.500 C 891 362.535, 891.321 363, 893.418 363 C 894.748 363, 896.548 362.727, 897.418 362.393 C 898.288 362.059, 899 360.950, 899 359.928 C 899 358.906, 898.130 357.605, 897.066 357.035 C 896.002 356.466, 894.202 356, 893.066 356 C 891.372 356, 891 356.630, 891 359.500 M 985 360.060 L 985 364.121 988.750 363.810 C 991.860 363.553, 992.559 363.083, 992.845 361.056 C 993.057 359.554, 992.502 358.109, 991.404 357.306 C 990.421 356.588, 988.579 356, 987.309 356 C 985.276 356, 985 356.486, 985 360.060 M 181 371.329 L 181 384.659 192.155 391.079 C 198.290 394.611, 203.690 397.650, 204.155 397.833 C 204.620 398.017, 205 392.099, 205 384.683 L 205 371.199 193.635 364.600 C 187.384 360.970, 181.984 358, 181.635 358 C 181.286 358, 181 363.998, 181 371.329 M 240.250 364.830 L 229 371.453 229 384.726 C 229 392.027, 229.245 398, 229.544 398 C 229.843 398, 235.243 395.016, 241.544 391.368 L 253 384.736 253 371.368 C 253 364.016, 252.662 358.047, 252.250 358.104 C 251.838 358.161, 246.438 361.188, 240.250 364.830 M 440 359.500 C 440 360.333, 440.889 361, 442 361 C 443.111 361, 444 360.333, 444 359.500 C 444 358.667, 443.111 358, 442 358 C 440.889 358, 440 358.667, 440 359.500 M 518 363.500 C 518 368.130, 518.285 369, 519.800 369 C 520.790 369, 522.140 368.460, 522.800 367.800 C 523.460 367.140, 524 365.377, 524 363.882 C 524 362.387, 523.727 360.452, 523.393 359.582 C 523.059 358.712, 521.709 358, 520.393 358 C 518.159 358, 518 358.366, 518 363.500 M 622.607 359.582 C 622.273 360.452, 622.007 362.364, 622.015 363.832 C 622.024 365.299, 622.415 367.107, 622.885 367.848 C 623.355 368.590, 624.586 369.036, 625.620 368.839 C 627.126 368.552, 627.560 367.439, 627.802 363.241 C 628.089 358.266, 627.980 358, 625.659 358 C 624.314 358, 622.941 358.712, 622.607 359.582 M 664 360 C 664 361.646, 664.518 362.065, 666.250 361.820 C 667.487 361.644, 668.500 360.825, 668.500 360 C 668.500 359.175, 667.487 358.356, 666.250 358.180 C 664.518 357.935, 664 358.354, 664 360 M 692 363.570 C 692 368.773, 692.148 369.118, 694.250 368.820 C 696.210 368.541, 696.539 367.824, 696.802 363.250 C 697.092 358.209, 697.003 358, 694.552 358 C 692.121 358, 692 358.265, 692 363.570 M 713 360 C 713 361.506, 713.522 362.046, 714.750 361.810 C 715.712 361.624, 716.500 360.810, 716.500 360 C 716.500 359.190, 715.712 358.376, 714.750 358.190 C 713.522 357.954, 713 358.494, 713 360 M 752.623 359.540 C 752.280 360.433, 752 361.802, 752 362.582 C 752 363.414, 752.997 364, 754.414 364 C 756.544 364, 756.743 363.685, 756.109 361.315 C 755.714 359.838, 754.908 358.469, 754.319 358.273 C 753.729 358.076, 752.966 358.646, 752.623 359.540 M 823.667 358.667 C 823.300 359.033, 823.007 360.946, 823.015 362.917 C 823.024 364.887, 823.415 367.107, 823.885 367.848 C 824.355 368.590, 825.586 369.036, 826.620 368.839 C 828.126 368.552, 828.560 367.439, 828.802 363.241 C 829.087 358.300, 828.968 358, 826.719 358 C 825.407 358, 824.033 358.300, 823.667 358.667 M 893 359.500 C 893 360.333, 893.889 361, 895 361 C 896.111 361, 897 360.333, 897 359.500 C 897 358.667, 896.111 358, 895 358 C 893.889 358, 893 358.667, 893 359.500 M 987 360 C 987 361.333, 987.667 362, 989 362 C 990.333 362, 991 361.333, 991 360 C 991 358.667, 990.333 358, 989 358 C 987.667 358, 987 358.667, 987 360 M 438 367 C 438 370.086, 438.036 370.107, 442.750 369.805 C 447.069 369.528, 447.500 369.273, 447.500 367 C 447.500 364.727, 447.069 364.472, 442.750 364.195 C 438.036 363.893, 438 363.914, 438 367 M 891 367 C 891 370.086, 891.036 370.107, 895.750 369.805 C 900.069 369.528, 900.500 369.273, 900.500 367 C 900.500 364.727, 900.069 364.472, 895.750 364.195 C 891.036 363.893, 891 363.914, 891 367 M 440 367 C 440 368.737, 440.511 369.074, 442.750 368.816 C 444.387 368.628, 445.500 367.893, 445.500 367 C 445.500 366.107, 444.387 365.372, 442.750 365.184 C 440.511 364.926, 440 365.263, 440 367 M 893 367 C 893 368.467, 893.667 369, 895.500 369 C 897.333 369, 898 368.467, 898 367 C 898 365.533, 897.333 365, 895.500 365 C 893.667 365, 893 365.533, 893 367" stroke="none" fill="#f41320" fill-rule="evenodd"/><path d="M 0 236.501 L 0 473.002 547.750 472.751 L 1095.500 472.500 1095.752 236.250 L 1096.004 0 548.002 0 L 0 0 0 236.501 M 0.492 237 C 0.492 367.075, 0.608 420.287, 0.750 355.250 C 0.892 290.212, 0.892 183.787, 0.750 118.750 C 0.608 53.712, 0.492 106.925, 0.492 237 M 261.820 12.250 C 261.515 14.394, 258.902 15.022, 206.500 25.556 C 176.250 31.637, 150.537 36.869, 149.361 37.184 C 148.184 37.498, 146.624 37.386, 145.894 36.935 C 145.164 36.484, 144.102 36.500, 143.534 36.972 C 142.965 37.443, 125.175 42.215, 104 47.577 C 82.825 52.938, 64.487 57.257, 63.250 57.173 C 62.013 57.090, 61 57.418, 61 57.902 C 61 58.385, 59.538 59.012, 57.750 59.294 C 55.962 59.576, 52.475 60.331, 50 60.971 C 47.525 61.612, 44.780 62.517, 43.900 62.983 C 43.020 63.449, 36.608 64.154, 29.650 64.550 L 17 65.271 16.986 155.885 C 16.979 205.723, 16.701 247.512, 16.370 248.750 C 15.781 250.945, 15.960 251, 23.717 251 L 31.667 251 31.691 246.750 C 31.704 244.412, 34.970 211.675, 38.948 174 C 42.926 136.325, 46.601 104.375, 47.115 103 C 47.925 100.831, 54.562 97.834, 97.275 80.351 C 124.349 69.270, 147.358 59.919, 148.408 59.572 C 149.457 59.226, 173.982 56.494, 202.908 53.502 C 231.833 50.510, 256.962 47.851, 258.750 47.594 C 261.999 47.126, 262 47.128, 262 51.563 C 262 54.661, 262.415 56, 263.375 56 C 264.131 56, 265.031 54.594, 265.375 52.875 C 265.719 51.156, 266 42.213, 266 33 C 266 23.788, 265.719 14.844, 265.375 13.125 C 265.031 11.406, 264.163 10, 263.445 10 C 262.727 10, 261.995 11.012, 261.820 12.250 M 159 123.093 C 127.925 141.220, 99.887 157.530, 96.694 159.336 L 90.887 162.621 95.902 165.350 L 100.917 168.080 156.708 135.689 C 187.394 117.875, 213.474 102.787, 214.665 102.160 C 216.588 101.148, 223.321 104.768, 274.943 134.570 L 333.055 168.119 337.278 165.790 C 339.600 164.509, 341.436 163.049, 341.357 162.545 C 341.278 162.041, 313.378 145.529, 279.357 125.852 C 245.336 106.174, 217.050 90.088, 216.500 90.104 C 215.950 90.121, 190.075 104.966, 159 123.093 M 74.756 244.542 L 74.500 326.246 53.701 338.291 L 32.901 350.335 35.701 352.088 C 37.240 353.053, 78.745 377.069, 127.934 405.457 C 177.123 433.846, 217.981 456.838, 218.730 456.550 C 219.479 456.263, 236.609 446.413, 256.796 434.663 C 276.983 422.913, 317.350 399.450, 346.500 382.524 C 375.650 365.598, 399.882 351.401, 400.350 350.975 C 400.817 350.549, 399.242 349.080, 396.850 347.710 C 394.457 346.339, 385.453 341.119, 376.839 336.109 C 368.226 331.099, 360.712 327, 360.142 327 C 359.571 327, 358.969 329.363, 358.802 332.250 L 358.500 337.500 329.500 354.246 L 300.500 370.992 300.229 350.920 C 300.080 339.880, 299.563 330.994, 299.080 331.174 C 298.596 331.353, 293.444 334.200, 287.630 337.500 L 277.059 343.500 277.030 364.034 L 277 384.567 248.048 401.284 C 232.125 410.478, 218.850 418, 218.548 418 C 218.247 418, 217.919 414.738, 217.820 410.750 L 217.640 403.500 217.041 411 C 216.712 415.125, 216.616 379.350, 216.829 331.500 L 217.217 244.500 147.059 204 C 108.471 181.725, 76.475 163.351, 75.956 163.169 C 75.370 162.963, 74.915 193.836, 74.756 244.542 M 436.278 173.750 C 436.496 174.162, 455.259 205.212, 477.974 242.750 L 519.272 311 543.693 311 L 568.113 311 565.807 307.153 C 564.538 305.037, 545.725 274.007, 524 238.197 L 484.500 173.088 460.191 173.044 C 446.821 173.020, 436.060 173.338, 436.278 173.750 M 528 202.466 L 528 231.932 547.612 264.216 C 558.398 281.972, 567.398 296.687, 567.612 296.917 C 567.825 297.146, 568 269.358, 568 235.167 L 568 173 548 173 L 528 173 528 202.466 M 603.250 186.947 L 589 200.804 589 242.318 L 589 283.832 603.250 297.407 L 617.500 310.982 635.250 310.991 L 653 311 653 297 L 653 283 644 283 L 635 283 635 242 L 635 201 644 201 L 653 201 653 187 L 653 173 635.250 173.045 L 617.500 173.090 603.250 186.947 M 660 187 L 660 201 668.500 201 L 677 201 677 242 L 677 283 668.500 283 L 660 283 660 297 L 660 311 677.763 311 L 695.527 311 709.263 297.237 L 723 283.474 723 241.974 L 723 200.473 709.237 186.737 L 695.474 173 677.737 173 L 660 173 660 187 M 730.177 174.352 C 730.355 175.096, 741.525 206.146, 754.999 243.352 L 779.498 311 801.856 311 C 819.311 311, 824.117 310.726, 823.772 309.750 C 823.529 309.063, 812.811 278.012, 799.953 240.750 L 776.577 173 753.215 173 C 734.090 173, 729.912 173.245, 730.177 174.352 M 820.295 209.645 L 809.168 246.290 819.484 276.395 C 829.251 304.899, 829.863 306.340, 830.984 303.500 C 831.635 301.850, 842.255 272.253, 854.584 237.729 C 866.913 203.204, 877 174.517, 877 173.979 C 877 173.369, 868.404 173, 854.211 173 L 831.423 173 820.295 209.645 M 930.713 174.750 C 931.070 175.713, 939.354 197.200, 949.121 222.500 L 966.878 268.500 954.299 269 L 941.719 269.500 937.415 281.500 C 935.047 288.100, 933.086 294.063, 933.055 294.750 C 933.013 295.714, 938.110 296, 955.366 296 L 977.732 296 980.468 303.500 L 983.203 311 1006.660 311 C 1019.562 311, 1029.920 310.663, 1029.678 310.250 C 1029.435 309.837, 1017 278.788, 1002.044 241.250 L 974.850 173 952.457 173 C 931.548 173, 930.106 173.116, 930.713 174.750 M 923.994 182.500 C 923.357 184.150, 912.297 213.585, 899.418 247.911 C 886.538 282.237, 876 310.483, 876 310.680 C 876 310.877, 885.999 310.917, 898.220 310.769 L 920.441 310.500 932.720 273.018 C 939.474 252.403, 944.990 234.853, 944.979 234.018 C 944.967 233.183, 940.501 220.575, 935.055 206 C 925.629 180.771, 925.098 179.644, 923.994 182.500 M 436 248.809 L 436 311 456 311 L 476 311 476 281.542 L 476 252.083 456 219.351 L 436 186.618 436 248.809 M 87 208.287 L 87 221.574 93.250 225.153 C 96.688 227.121, 102.101 230.193, 105.279 231.978 L 111.058 235.224 110.779 221.493 L 110.500 207.763 99.500 201.403 C 93.450 197.904, 88.162 195.033, 87.750 195.021 C 87.338 195.009, 87 200.979, 87 208.287 M 335 201.346 L 324.500 207.534 324.222 221.241 L 323.944 234.948 335.472 228.282 L 347 221.615 347 208.308 C 347 200.988, 346.663 195.036, 346.250 195.079 C 345.837 195.123, 340.775 197.943, 335 201.346 M 134 235.329 L 134 248.659 145.155 255.079 C 151.290 258.611, 156.690 261.650, 157.155 261.833 C 157.620 262.017, 158 256.092, 158 248.667 L 158 235.167 146.534 228.583 C 140.228 224.963, 134.828 222, 134.534 222 C 134.240 222, 134 227.998, 134 235.329 M 287.750 228.705 L 276 235.389 276 248.694 C 276 256.012, 276.240 262, 276.534 262 C 276.828 262, 282.228 259.037, 288.534 255.417 L 300 248.833 300 235.417 C 300 228.037, 299.887 222.005, 299.750 222.010 C 299.613 222.016, 294.212 225.028, 287.750 228.705 M 87.221 262.525 L 87.500 276.237 98.500 282.597 C 104.550 286.096, 109.838 288.967, 110.250 288.979 C 110.662 288.991, 111 283.017, 111 275.704 L 111 262.408 99.775 255.954 C 93.601 252.404, 88.188 249.346, 87.746 249.157 C 87.304 248.968, 87.068 254.984, 87.221 262.525 M 182.011 262.635 L 182.023 276.500 192.988 282.750 C 199.019 286.188, 204.189 289, 204.477 289 C 204.765 289, 205 282.976, 205 275.613 L 205 262.225 195.750 256.969 C 190.662 254.078, 185.488 251.050, 184.250 250.241 L 182 248.770 182.011 262.635 M 335.250 255.637 L 324 262.169 324 275.610 L 324 289.051 327.103 287.447 C 328.809 286.564, 333.984 283.610, 338.603 280.882 L 347 275.923 347 262.461 C 347 255.058, 346.887 249.023, 346.750 249.052 C 346.613 249.081, 341.438 252.044, 335.250 255.637 M 239.762 256.305 L 229.023 262.500 229.012 275.750 C 229.005 283.038, 229.302 289, 229.672 289 C 230.041 289, 235.441 286.040, 241.672 282.422 L 253 275.843 253 262.922 C 253 253.222, 252.688 250.014, 251.750 250.055 C 251.063 250.085, 245.668 252.898, 239.762 256.305 M 134.221 289.570 L 134.500 303.289 145.474 309.644 C 151.509 313.140, 156.797 316, 157.224 316 C 157.651 316, 158 310.029, 158 302.731 L 158 289.462 152.250 286.248 C 149.088 284.481, 143.675 281.418, 140.221 279.443 L 133.943 275.852 134.221 289.570 M 288 282.972 L 276.500 289.682 276.853 302.591 C 277.047 309.691, 277.320 315.624, 277.461 315.775 C 277.601 315.926, 282.541 313.280, 288.438 309.897 C 294.336 306.513, 299.364 303.215, 299.612 302.569 C 299.860 301.923, 299.936 295.740, 299.781 288.828 L 299.500 276.263 288 282.972 M 87.011 316.635 L 87.023 330.500 97.988 336.750 C 104.019 340.188, 109.189 343, 109.477 343 C 109.765 343, 110 336.976, 110 329.613 L 110 316.225 100.750 310.969 C 95.662 308.078, 90.487 305.050, 89.250 304.241 L 87 302.770 87.011 316.635 M 181.221 317.207 L 181.500 330.413 188.500 334.502 C 192.350 336.750, 197.637 339.826, 200.250 341.337 L 205 344.084 204.964 330.292 L 204.927 316.500 193.954 310.250 C 187.919 306.813, 182.522 304, 181.961 304 C 181.306 304, 181.042 308.718, 181.221 317.207 M 240.500 310.403 L 229.500 316.763 229.221 330.456 L 228.943 344.148 235.221 340.542 C 238.675 338.559, 244.082 335.488, 247.238 333.718 L 252.976 330.500 252.988 317.250 C 252.995 309.962, 252.662 304.009, 252.250 304.021 C 251.838 304.033, 246.550 306.904, 240.500 310.403 M 334.762 310.305 L 324.023 316.500 324.012 329.750 C 324.005 337.038, 324.302 343, 324.672 343 C 325.041 343, 330.469 340.023, 336.735 336.385 C 344.895 331.646, 347.966 329.354, 347.563 328.303 C 347.253 327.497, 347 321.698, 347 315.418 C 347 309.138, 346.663 304.025, 346.250 304.055 C 345.837 304.085, 340.668 306.898, 334.762 310.305 M 435.557 328.223 C 434.701 329.445, 434 331.145, 434 332 C 434 332.855, 434.701 334.555, 435.557 335.777 L 437.113 338 732.485 338 C 999.672 338, 1028.007 337.850, 1029.429 336.429 C 1030.293 335.564, 1031 333.571, 1031 332 C 1031 330.429, 1030.293 328.436, 1029.429 327.571 C 1028.007 326.150, 999.672 326, 732.485 326 L 437.113 326 435.557 328.223 M 132.629 335.750 C 132.813 338.363, 133.238 344.325, 133.574 349 L 134.183 357.500 145.201 363.807 C 151.260 367.277, 156.306 369.977, 156.414 369.807 C 156.521 369.638, 156.428 363.853, 156.207 356.951 L 155.805 344.402 144.889 337.701 C 138.885 334.015, 133.595 331, 133.133 331 C 132.671 331, 132.444 333.137, 132.629 335.750 M 620 354.234 C 617.724 355.434, 617.473 356.219, 617.202 363.004 C 616.955 369.155, 617.207 370.678, 618.643 371.728 C 619.599 372.428, 622.761 373, 625.668 373 C 630.207 373, 631.186 372.646, 632.597 370.493 C 633.815 368.633, 634.127 366.435, 633.805 361.978 C 633.566 358.674, 632.876 355.476, 632.272 354.872 C 631.668 354.268, 629.222 353.581, 626.837 353.346 C 624.347 353.100, 621.435 353.478, 620 354.234 M 821 354.291 C 818.725 355.438, 818.473 356.209, 818.204 362.868 C 818.021 367.401, 818.353 370.721, 819.077 371.592 C 819.833 372.504, 822.272 373, 826 373 C 829.827 373, 832.161 372.511, 832.967 371.539 C 833.634 370.736, 834.420 368.289, 834.713 366.103 C 835.006 363.916, 834.958 360.592, 834.607 358.716 C 834.171 356.397, 833.157 354.937, 831.436 354.153 C 830.045 353.519, 827.690 353.007, 826.203 353.015 C 824.716 353.023, 822.375 353.597, 821 354.291 M 435 363.454 L 435 373 441.800 373 C 445.756 373, 449.102 372.498, 449.800 371.800 C 450.460 371.140, 451 369.205, 451 367.500 C 451 365.795, 450.469 363.869, 449.821 363.221 C 449.172 362.572, 448.609 360.344, 448.571 358.271 L 448.500 354.500 441.750 354.204 L 435 353.909 435 363.454 M 455 362.300 C 455 367.422, 455.459 371.059, 456.200 371.800 C 456.860 372.460, 459.920 373, 463 373 C 466.080 373, 469.140 372.460, 469.800 371.800 C 470.541 371.059, 471 367.422, 471 362.300 C 471 354.153, 470.955 354, 468.544 354 C 466.189 354, 466.076 354.298, 465.794 361.239 C 465.544 367.400, 465.220 368.532, 463.620 368.838 C 462.586 369.035, 461.355 368.590, 460.885 367.848 C 460.415 367.107, 460.024 363.688, 460.015 360.250 C 460.001 354.254, 459.898 354, 457.500 354 C 455.034 354, 455 354.113, 455 362.300 M 476 356 C 476 357.111, 476.667 358, 477.500 358 C 478.629 358, 479 359.210, 479 362.893 C 479 366.320, 478.551 367.958, 477.500 368.362 C 476.675 368.678, 476 369.851, 476 370.969 C 476 372.802, 476.633 373, 482.500 373 C 488.430 373, 489 372.816, 489 370.906 C 489 369.654, 488.197 368.603, 487 368.290 C 485.344 367.857, 485 366.926, 485 362.883 C 485 358.667, 485.273 358, 487 358 C 488.333 358, 489 357.333, 489 356 C 489 354.205, 488.333 354, 482.500 354 C 476.667 354, 476 354.205, 476 356 M 493 363.500 L 493 373 500.500 373 L 508 373 508 368 C 508 363.333, 507.833 363, 505.500 363 C 503.376 363, 503 363.462, 503 366.070 C 503 368.681, 502.664 369.091, 500.750 368.820 C 498.685 368.526, 498.476 367.903, 498.206 361.250 C 497.924 354.298, 497.812 354, 495.456 354 C 493.020 354, 493 354.079, 493 363.500 M 512.212 363.250 L 512.500 372.500 519.135 372.793 C 524.198 373.017, 526.154 372.703, 527.385 371.472 C 528.552 370.306, 529 367.988, 529 363.129 C 529 359.229, 528.496 355.896, 527.800 355.200 C 527.085 354.485, 523.636 354, 519.262 354 L 511.925 354 512.212 363.250 M 533 356 C 533 357.333, 533.667 358, 535 358 C 536.727 358, 537 358.667, 537 362.883 C 537 366.926, 536.656 367.857, 535 368.290 C 533.803 368.603, 533 369.654, 533 370.906 C 533 372.816, 533.570 373, 539.500 373 C 545.430 373, 546 372.816, 546 370.906 C 546 369.654, 545.197 368.603, 544 368.290 C 542.376 367.865, 542 366.926, 542 363.290 C 542 359.654, 542.376 358.715, 544 358.290 C 545.107 358, 546 356.926, 546 355.883 C 546 354.232, 545.199 354, 539.500 354 C 533.667 354, 533 354.205, 533 356 M 550 363.500 L 550 373 553 373 C 555.948 373, 556.001 372.910, 556.032 367.750 L 556.063 362.500 558.532 365.306 C 559.889 366.849, 561 369.211, 561 370.556 C 561 372.605, 561.485 373, 564 373 L 567 373 567 363.500 L 567 354 564 354 C 561.292 354, 561 354.312, 561 357.196 L 561 360.392 557.702 357.196 C 555.889 355.438, 553.414 354, 552.202 354 C 550.087 354, 550 354.376, 550 363.500 M 572.571 355.571 C 571.477 356.666, 571 359.047, 571 363.416 C 571 368.224, 571.427 370.077, 572.829 371.345 C 574.115 372.509, 576.490 373, 580.829 373 L 587 373 587 368 C 587 363.370, 586.820 363, 584.566 363 C 582.655 363, 582.065 363.590, 581.816 365.750 C 581.589 367.728, 580.938 368.500, 579.500 368.500 C 577.767 368.500, 577.500 367.833, 577.500 363.500 L 577.500 358.500 581.250 358.190 C 584.188 357.946, 585 357.459, 585 355.940 C 585 354.258, 584.277 354, 579.571 354 C 575.970 354, 573.614 354.529, 572.571 355.571 M 597 357.806 C 597 360.295, 597.865 362.784, 599.500 365 C 600.875 366.864, 602 369.426, 602 370.694 C 602 372.590, 602.534 373, 605 373 C 607.359 373, 608 372.561, 608 370.947 C 608 369.818, 609.125 367.238, 610.500 365.215 C 612.073 362.899, 613 360.139, 613 357.768 C 613 354.415, 612.724 354, 610.500 354 C 608.427 354, 608 354.479, 608 356.809 C 608 358.354, 607.325 360.491, 606.500 361.559 C 605.015 363.480, 604.985 363.480, 603.500 361.559 C 602.675 360.491, 602 358.354, 602 356.809 C 602 354.479, 601.573 354, 599.500 354 C 597.271 354, 597 354.413, 597 357.806 M 638 362.300 C 638 367.422, 638.459 371.059, 639.200 371.800 C 639.860 372.460, 642.920 373, 646 373 C 649.080 373, 652.140 372.460, 652.800 371.800 C 653.541 371.059, 654 367.422, 654 362.300 C 654 354.153, 653.955 354, 651.544 354 C 649.189 354, 649.076 354.298, 648.794 361.239 C 648.544 367.400, 648.220 368.532, 646.620 368.838 C 645.586 369.035, 644.355 368.590, 643.885 367.848 C 643.415 367.107, 643.024 363.688, 643.015 360.250 C 643.001 354.254, 642.898 354, 640.500 354 C 638.034 354, 638 354.113, 638 362.300 M 659 363.500 C 659 372.967, 659.009 373, 661.500 373 C 663.611 373, 664 372.533, 664 370 C 664 367.333, 664.333 367, 667 367 C 669.667 367, 670 367.333, 670 370 C 670 372.667, 670.333 373, 673 373 C 675.818 373, 676 372.764, 676 369.122 C 676 366.946, 675.361 364.714, 674.542 364.035 C 673.580 363.237, 673.283 361.836, 673.667 359.915 C 674.006 358.222, 673.727 356.376, 673.002 355.502 C 672.131 354.453, 669.831 354, 665.378 354 L 659 354 659 363.500 M 686 363.500 L 686 373 692.977 373 C 699.321 373, 700.103 372.773, 701.597 370.493 C 702.820 368.626, 703.127 366.434, 702.800 361.913 C 702.527 358.138, 701.820 355.499, 700.930 354.936 C 700.144 354.438, 696.462 354.024, 692.750 354.015 L 686 354 686 363.500 M 707 363.500 L 707 373 710 373 C 712.667 373, 713 372.667, 713 370 C 713 367.467, 713.389 367, 715.500 367 C 717.611 367, 718 367.467, 718 370 C 718 372.667, 718.333 373, 721 373 C 723.818 373, 724 372.764, 724 369.122 C 724 366.907, 723.361 364.715, 722.510 364.008 C 721.586 363.242, 721.240 361.891, 721.600 360.458 C 721.919 359.185, 721.885 357.212, 721.523 356.072 C 720.941 354.238, 720.067 354, 713.933 354 L 707 354 707 363.500 M 728 363.500 L 728 373 735 373 C 741.264 373, 742 372.796, 742 371.057 C 742 369.487, 741.186 369.056, 737.750 368.807 C 734.776 368.592, 733.500 368.050, 733.500 367 C 733.500 366.039, 734.667 365.387, 736.750 365.187 C 739.190 364.951, 740 364.391, 740 362.937 C 740 361.390, 739.295 361, 736.500 361 C 734.056 361, 733 360.548, 733 359.500 C 733 358.389, 734.167 358, 737.500 358 C 741.333 358, 742 357.704, 742 356 C 742 354.190, 741.333 354, 735 354 L 728 354 728 363.500 M 747.693 358.750 C 746.756 361.363, 745.992 365.637, 745.995 368.250 C 746 372.649, 746.185 373, 748.500 373 C 750.500 373, 751 372.500, 751 370.500 C 751 368.389, 751.467 368, 754 368 C 756.533 368, 757 368.389, 757 370.500 C 757 372.500, 757.500 373, 759.500 373 C 761.863 373, 762 372.699, 762 367.520 C 762 364.506, 761.276 360.231, 760.391 358.020 C 758.833 354.126, 758.636 354, 754.089 354 L 749.395 354 747.693 358.750 M 767 363.500 C 767 372.967, 767.009 373, 769.500 373 C 771.833 373, 772 372.667, 772 368 C 772 365.250, 772.402 363, 772.893 363 C 773.384 363, 774.045 363.675, 774.362 364.500 C 774.678 365.325, 775.464 366, 776.108 366 C 776.753 366, 777.877 365.212, 778.608 364.250 C 779.767 362.723, 779.940 363.170, 779.968 367.750 C 779.999 372.910, 780.052 373, 783 373 L 786 373 786 363.500 L 786 354 783.026 354 C 780.696 354, 779.696 354.688, 778.411 357.173 L 776.770 360.346 774.907 357.923 C 773.883 356.590, 773.034 355.163, 773.022 354.750 C 773.010 354.337, 771.650 354, 770 354 L 767 354 767 363.500 M 797 363.500 C 797 372.967, 797.009 373, 799.500 373 C 801.690 373, 802 372.567, 802 369.500 C 802 366.278, 802.238 366, 805 366 C 807.773 366, 808 366.270, 808 369.566 C 808 372.867, 808.205 373.109, 810.750 372.816 L 813.500 372.500 813.788 363.250 L 814.075 354 811.038 354 C 808.222 354, 808 354.261, 808 357.566 C 808 360.867, 807.795 361.109, 805.250 360.816 C 802.959 360.553, 802.448 359.958, 802.187 357.250 C 801.927 354.558, 801.455 354, 799.437 354 C 797.025 354, 797 354.099, 797 363.500 M 839 363.500 C 839 372.967, 839.009 373, 841.500 373 C 843.833 373, 844 372.667, 844 368 C 844 365.250, 844.402 363, 844.893 363 C 845.384 363, 846.045 363.675, 846.362 364.500 C 846.678 365.325, 847.640 366, 848.500 366 C 849.360 366, 850.322 365.325, 850.638 364.500 C 850.955 363.675, 851.616 363, 852.107 363 C 852.598 363, 853 365.250, 853 368 C 853 372.667, 853.167 373, 855.500 373 C 857.991 373, 858 372.967, 858 363.500 L 858 354 855.026 354 C 852.732 354, 851.696 354.687, 850.500 357 C 849.647 358.650, 848.747 360, 848.500 360 C 848.253 360, 847.353 358.650, 846.500 357 C 845.304 354.687, 844.268 354, 841.974 354 L 839 354 839 363.500 M 863 363.500 L 863 373 870 373 C 876.264 373, 877 372.796, 877 371.057 C 877 369.488, 876.186 369.056, 872.759 368.807 C 869.665 368.583, 868.427 368.027, 868.185 366.750 C 867.919 365.348, 868.564 365, 871.427 365 C 874.333 365, 875 364.627, 875 363 C 875 361.381, 874.333 361, 871.500 361 C 869.056 361, 868 360.548, 868 359.500 C 868 358.389, 869.167 358, 872.500 358 C 876.333 358, 877 357.704, 877 356 C 877 354.190, 876.333 354, 870 354 L 863 354 863 363.500 M 887 363.500 L 887 373 894.300 373 C 898.644 373, 902.086 372.514, 902.800 371.800 C 903.460 371.140, 904 369.101, 904 367.269 C 904 365.237, 903.418 363.714, 902.507 363.364 C 901.513 362.983, 901.209 362.016, 901.597 360.468 C 901.918 359.190, 901.885 357.212, 901.523 356.072 C 900.941 354.238, 900.067 354, 893.933 354 L 887 354 887 363.500 M 908 363.500 L 908 373 915 373 C 921.264 373, 922 372.796, 922 371.057 C 922 369.488, 921.186 369.056, 917.759 368.807 C 914.665 368.583, 913.427 368.027, 913.185 366.750 C 912.919 365.348, 913.564 365, 916.427 365 C 919.333 365, 920 364.627, 920 363 C 920 361.381, 919.333 361, 916.500 361 C 914.056 361, 913 360.548, 913 359.500 C 913 358.389, 914.167 358, 917.500 358 C 921.333 358, 922 357.704, 922 356 C 922 354.190, 921.333 354, 915 354 L 908 354 908 363.500 M 925 356 C 925 357.467, 925.667 358, 927.500 358 C 929.944 358, 930 358.167, 930 365.500 L 930 373 933 373 L 936 373 936 365.500 C 936 358.167, 936.056 358, 938.500 358 C 940.333 358, 941 357.467, 941 356 C 941 354.167, 940.333 354, 933 354 C 925.667 354, 925 354.167, 925 356 M 943 355.934 C 943 357.300, 943.807 357.960, 945.750 358.184 C 948.436 358.493, 948.507 358.668, 948.794 365.750 C 949.076 372.702, 949.188 373, 951.544 373 C 953.934 373, 954 372.798, 954 365.500 C 954 358.167, 954.056 358, 956.500 358 C 958.333 358, 959 357.467, 959 356 C 959 354.167, 958.333 354, 951 354 C 943.758 354, 943 354.183, 943 355.934 M 963 363.500 L 963 373 970 373 C 976.264 373, 977 372.796, 977 371.057 C 977 369.487, 976.186 369.056, 972.750 368.807 C 969.776 368.592, 968.500 368.050, 968.500 367 C 968.500 366.039, 969.667 365.387, 971.750 365.187 C 974.190 364.951, 975 364.391, 975 362.937 C 975 361.381, 974.294 361, 971.417 361 C 968.997 361, 967.967 360.594, 968.244 359.750 C 968.470 359.063, 970.533 358.362, 972.828 358.193 C 976.187 357.945, 977 357.506, 977 355.943 C 977 354.204, 976.264 354, 970 354 L 963 354 963 363.500 M 981 363.456 L 981 373 984 373 C 986.667 373, 987 372.667, 987 370 C 987 367.333, 987.333 367, 990 367 C 992.667 367, 993 367.333, 993 370 C 993 372.533, 993.389 373, 995.500 373 C 997.792 373, 998 372.630, 998 368.550 C 998 366.083, 997.443 363.743, 996.750 363.300 C 996.063 362.860, 995.500 360.700, 995.500 358.500 L 995.500 354.500 988.250 354.206 L 981 353.912 981 363.456 M 437 363.050 L 437 371.100 442.750 370.800 C 448.257 370.513, 448.514 370.378, 448.828 367.628 C 449.009 366.049, 448.671 364.271, 448.078 363.678 C 447.485 363.085, 447 361.356, 447 359.835 C 447 358.125, 446.262 356.675, 445.066 356.035 C 444.002 355.466, 441.752 355, 440.066 355 L 437 355 437 363.050 M 457.195 361.500 C 457.105 365.350, 457.366 369.027, 457.775 369.671 C 458.185 370.315, 459.658 371.127, 461.049 371.476 C 462.440 371.825, 464.798 371.647, 466.289 371.080 C 468.940 370.072, 468.996 369.878, 468.820 362.275 L 468.640 354.500 468.070 361.904 C 467.592 368.112, 467.178 369.420, 465.507 370.002 C 464.410 370.384, 462.385 370.397, 461.007 370.031 C 458.688 369.415, 458.457 368.809, 457.930 361.933 L 457.360 354.500 457.195 361.500 M 479 355.891 C 481.304 356.529, 481.523 357.104, 481.794 363.221 C 482.086 369.806, 482.066 369.862, 479.294 370.279 C 477.757 370.511, 478.975 370.706, 482 370.714 C 485.025 370.721, 486.488 370.533, 485.250 370.294 C 483.177 369.895, 483 369.320, 483 363 C 483 356.680, 483.177 356.105, 485.250 355.706 C 486.488 355.467, 485.025 355.256, 482 355.236 C 478.275 355.211, 477.307 355.423, 479 355.891 M 495.201 362.750 L 495 371 500.500 371 L 506 371 505.850 367.750 C 505.711 364.725, 505.671 364.690, 505.284 367.250 C 504.902 369.769, 504.499 370, 500.476 370 L 496.084 370 495.743 362.250 L 495.402 354.500 495.201 362.750 M 515 363 L 515 371 519.800 371 C 522.440 371, 525.140 370.460, 525.800 369.800 C 526.460 369.140, 527 366.247, 527 363.371 C 527 359.952, 526.456 357.599, 525.429 356.571 C 524.473 355.616, 522.121 355, 519.429 355 L 515 355 515 363 M 536.750 355.706 C 538.823 356.105, 539 356.680, 539 363 C 539 369.320, 538.823 369.895, 536.750 370.294 C 535.513 370.533, 536.750 370.728, 539.500 370.728 C 542.250 370.728, 543.487 370.533, 542.250 370.294 C 540.177 369.895, 540 369.320, 540 363 C 540 356.680, 540.177 356.105, 542.250 355.706 C 543.487 355.467, 542.250 355.272, 539.500 355.272 C 536.750 355.272, 535.513 355.467, 536.750 355.706 M 553.191 363 L 553.353 371.500 553.927 364.589 L 554.500 357.678 559.095 363.089 C 561.623 366.065, 563.950 369.175, 564.266 370 C 564.583 370.825, 564.802 367.675, 564.753 363 C 564.669 354.998, 564.630 354.848, 564.082 360.452 L 563.500 366.403 558.264 360.452 L 553.028 354.500 553.191 363 M 575.853 355.670 C 574.947 355.910, 573.940 357.096, 573.616 358.304 C 573.292 359.512, 573.021 361.992, 573.014 363.816 C 573.006 365.639, 573.466 368.002, 574.035 369.066 C 574.845 370.579, 576.150 371, 580.035 371 L 585 371 584.850 367.750 C 584.711 364.725, 584.671 364.690, 584.284 367.250 C 583.901 369.774, 583.503 370, 579.434 370 L 575 370 575 363.559 L 575 357.118 579.250 356.166 C 582.711 355.391, 582.943 355.216, 580.500 355.223 C 578.850 355.228, 576.759 355.429, 575.853 355.670 M 599.150 357.346 C 599.067 358.911, 599.772 361.498, 600.716 363.096 C 601.659 364.693, 602.784 366, 603.216 366 C 603.647 366, 604 367.125, 604 368.500 C 604 369.875, 604.450 371, 605 371 C 605.550 371, 606 370.080, 606 368.956 C 606 367.832, 607.125 365.699, 608.500 364.217 C 610.280 362.297, 610.957 360.509, 610.850 358.010 C 610.711 354.746, 610.670 354.704, 610.268 357.410 C 610.031 359.011, 609.146 361.373, 608.303 362.660 C 607.460 363.947, 605.973 365, 605 365 C 604.027 365, 602.540 363.947, 601.697 362.660 C 600.854 361.373, 599.969 359.011, 599.732 357.410 L 599.300 354.500 599.150 357.346 M 620.571 356.571 C 619.575 357.568, 619 359.917, 619 362.990 C 619 365.655, 619.268 368.536, 619.597 369.391 C 619.925 370.246, 621.677 371.224, 623.491 371.564 C 625.305 371.905, 627.737 371.676, 628.895 371.056 C 630.691 370.095, 631 369.011, 631 363.665 C 631 360.126, 630.478 356.878, 629.800 356.200 C 629.140 355.540, 627.147 355, 625.371 355 C 623.596 355, 621.436 355.707, 620.571 356.571 M 640.195 361.500 C 640.105 365.350, 640.366 369.027, 640.775 369.671 C 641.185 370.315, 642.658 371.127, 644.049 371.476 C 645.440 371.825, 647.798 371.647, 649.289 371.080 C 651.940 370.072, 651.996 369.878, 651.820 362.275 L 651.640 354.500 651.070 361.904 C 650.592 368.112, 650.178 369.420, 648.507 370.002 C 647.410 370.384, 645.385 370.397, 644.007 370.031 C 641.688 369.415, 641.457 368.809, 640.930 361.933 L 640.360 354.500 640.195 361.500 M 661.160 363.250 C 661.248 367.788, 661.502 370.038, 661.723 368.250 C 662.117 365.077, 662.243 365, 667.063 365 C 671.882 365, 672 365.072, 672 368 C 672 369.650, 672.450 371, 673 371 C 673.550 371, 674 370.295, 674 369.434 C 674 368.573, 673.459 366.886, 672.799 365.684 C 672.138 364.483, 671.534 361.995, 671.457 360.156 C 671.379 358.318, 670.682 356.412, 669.908 355.922 C 669.133 355.432, 666.813 355.024, 664.750 355.015 L 661 355 661.160 363.250 M 688 363.050 L 688 371.100 693.750 370.800 L 699.500 370.500 699.804 364.026 C 700.049 358.789, 699.774 357.308, 698.362 356.276 C 697.403 355.574, 694.679 355, 692.309 355 L 688 355 688 363.050 M 709.160 363.250 C 709.248 367.788, 709.502 370.038, 709.723 368.250 C 710.117 365.080, 710.247 365, 715.035 365 C 719.713 365, 719.987 365.152, 720.881 368.250 C 721.787 371.386, 721.823 371.405, 721.910 368.789 C 721.959 367.299, 721.415 365.532, 720.699 364.864 C 719.983 364.195, 719.574 362.450, 719.789 360.985 C 720.023 359.393, 719.512 357.655, 718.518 356.661 C 717.534 355.677, 715.257 355, 712.929 355 L 709 355 709.160 363.250 M 730 363 L 730 371 735.250 370.820 L 740.500 370.640 735.750 370.265 C 731.268 369.912, 731 369.728, 731 367.006 C 731 364.408, 731.374 364.082, 734.750 363.728 L 738.500 363.336 734.750 363.168 C 731.175 363.008, 731 362.839, 731 359.555 C 731 356.164, 731.075 356.104, 735.750 355.735 L 740.500 355.360 735.250 355.180 L 730 355 730 363 M 750.348 357.592 C 749.377 359.074, 748.538 362.609, 748.389 365.842 C 748.245 368.954, 748.356 370.488, 748.634 369.250 C 749.073 367.295, 749.776 367, 754 367 C 758.246 367, 758.916 367.285, 759.294 369.250 C 759.533 370.488, 759.787 369.250, 759.860 366.500 C 759.950 363.090, 759.363 360.467, 758.011 358.250 C 756.843 356.335, 755.212 355, 754.038 355 C 752.942 355, 751.282 356.166, 750.348 357.592 M 769.735 355.598 C 769.331 356.002, 769.081 359.746, 769.180 363.917 L 769.360 371.500 769.930 364 L 770.500 356.500 772.818 359.750 C 774.093 361.538, 775.684 363, 776.352 363 C 777.021 363, 778.453 361.538, 779.534 359.750 L 781.500 356.500 781.794 363.750 C 781.955 367.738, 782.518 371, 783.044 371 C 783.570 371, 784 367.652, 784 363.559 C 784 358.918, 783.556 355.843, 782.819 355.388 C 782.143 354.970, 781.094 355.478, 780.363 356.579 C 779.661 357.636, 778.392 359.400, 777.543 360.500 C 776.170 362.279, 775.892 362.324, 775.039 360.910 C 774.511 360.035, 773.268 358.317, 772.275 357.091 C 771.283 355.866, 770.140 355.194, 769.735 355.598 M 799.343 363 C 799.339 367.675, 799.513 369.813, 799.728 367.750 L 800.121 364 805 364 L 809.879 364 810.272 367.750 C 810.487 369.813, 810.661 367.675, 810.657 363 C 810.654 358.325, 810.478 356.413, 810.268 358.750 L 809.885 363 805 363 L 800.115 363 799.732 358.750 C 799.522 356.413, 799.346 358.325, 799.343 363 M 821.750 356.080 C 820.427 356.851, 820 358.410, 820 362.468 C 820 365.421, 820.268 368.536, 820.597 369.391 C 820.925 370.246, 822.677 371.224, 824.491 371.564 C 826.305 371.905, 828.737 371.676, 829.895 371.056 C 831.691 370.095, 832 369.011, 832 363.665 C 832 360.126, 831.478 356.878, 830.800 356.200 C 830.140 355.540, 828.227 355.014, 826.550 355.030 C 824.873 355.047, 822.712 355.519, 821.750 356.080 M 841.745 355.588 C 841.335 355.998, 841.081 359.746, 841.180 363.917 L 841.360 371.500 841.930 364 L 842.500 356.500 844.818 359.750 C 846.093 361.538, 847.755 363, 848.512 363 C 849.268 363, 850.684 361.650, 851.659 360 C 852.634 358.350, 853.764 357, 854.172 357 C 854.579 357, 855.078 360.262, 855.281 364.250 L 855.649 371.500 855.575 363.580 C 855.534 359.224, 855.050 355.518, 854.500 355.344 C 853.950 355.169, 852.436 356.668, 851.135 358.675 L 848.770 362.322 845.631 358.582 C 843.904 356.526, 842.155 355.178, 841.745 355.588 M 865 363 L 865 371 870.250 370.820 L 875.500 370.640 870.750 370.265 C 866.268 369.912, 866 369.728, 866 367.006 C 866 364.408, 866.374 364.082, 869.750 363.728 L 873.500 363.336 869.750 363.168 C 866.175 363.008, 866 362.839, 866 359.555 C 866 356.164, 866.075 356.104, 870.750 355.735 L 875.500 355.360 870.250 355.180 L 865 355 865 363 M 890 363.050 L 890 371.100 895.750 370.800 C 901.437 370.503, 901.503 370.465, 901.814 367.243 C 902.018 365.127, 901.632 363.796, 900.712 363.443 C 899.794 363.091, 899.472 361.984, 899.795 360.294 C 900.137 358.502, 899.718 357.267, 898.455 356.344 C 897.445 355.605, 895.129 355, 893.309 355 L 890 355 890 363.050 M 910 363 L 910 371 915.250 370.820 L 920.500 370.640 915.750 370.265 C 911.268 369.912, 911 369.728, 911 367.006 C 911 364.408, 911.374 364.082, 914.750 363.728 L 918.500 363.336 914.750 363.168 C 911.175 363.008, 911 362.839, 911 359.555 C 911 356.164, 911.075 356.104, 915.750 355.735 L 920.500 355.360 915.250 355.180 L 910 355 910 363 M 929.250 355.716 C 931.966 356.128, 932 356.225, 932 363.566 C 932 367.855, 932.423 371, 933 371 C 933.577 371, 934 367.855, 934 363.566 C 934 356.225, 934.034 356.128, 936.750 355.716 C 938.263 355.487, 936.575 355.300, 933 355.300 C 929.425 355.300, 927.737 355.487, 929.250 355.716 M 947.709 355.720 L 950.918 356.121 951.258 363.810 L 951.598 371.500 951.799 363.813 L 952 356.127 955.250 355.723 C 957.038 355.502, 955.350 355.320, 951.500 355.320 C 947.650 355.320, 945.944 355.500, 947.709 355.720 M 965 363 L 965 371 970.250 370.820 L 975.500 370.640 970.750 370.265 C 966.268 369.912, 966 369.728, 966 367.006 C 966 364.408, 966.374 364.082, 969.750 363.728 L 973.500 363.336 969.750 363.168 C 966.175 363.008, 966 362.839, 966 359.555 C 966 356.164, 966.075 356.104, 970.750 355.735 L 975.500 355.360 970.250 355.180 L 965 355 965 363 M 984.160 363.250 C 984.248 367.788, 984.503 370.014, 984.727 368.198 C 985.129 364.938, 985.195 364.900, 989.812 365.198 C 994.107 365.475, 994.542 365.745, 995.127 368.500 L 995.763 371.500 995.882 368.219 C 995.950 366.328, 995.440 364.722, 994.679 364.430 C 993.825 364.103, 993.520 362.818, 993.816 360.799 C 994.146 358.553, 993.761 357.298, 992.446 356.337 C 991.441 355.602, 989.129 355, 987.309 355 L 984 355 984.160 363.250 M 438 359.500 C 438 362.535, 438.321 363, 440.418 363 C 441.748 363, 443.548 362.727, 444.418 362.393 C 445.288 362.059, 446 360.762, 446 359.510 C 446 357.994, 445.248 357.032, 443.750 356.630 C 442.512 356.299, 440.712 356.021, 439.750 356.014 C 438.414 356.003, 438 356.828, 438 359.500 M 516 363.055 L 516 370.110 520.750 369.805 L 525.500 369.500 525.800 363.744 C 526.082 358.336, 525.942 357.929, 523.485 356.994 C 522.047 356.447, 519.774 356, 518.435 356 C 516.085 356, 516 356.247, 516 363.055 M 621.200 357.200 C 620.540 357.860, 620 360.796, 620 363.725 C 620 368.484, 620.265 369.150, 622.500 370 C 624.080 370.601, 625.920 370.601, 627.500 370 C 629.778 369.134, 630 368.524, 630 363.132 C 630 358.658, 629.614 357.066, 628.418 356.607 C 627.548 356.273, 625.838 356, 624.618 356 C 623.398 356, 621.860 356.540, 621.200 357.200 M 662 360.060 L 662 364.121 665.750 363.810 C 669.055 363.537, 669.539 363.157, 669.830 360.609 C 670.018 358.966, 669.586 357.353, 668.830 356.874 C 668.099 356.410, 666.263 356.024, 664.750 356.015 C 662.199 356.001, 662 356.294, 662 360.060 M 689.667 356.667 C 689.300 357.033, 689 360.208, 689 363.721 L 689 370.110 693.750 369.805 L 698.500 369.500 698.794 363.378 C 699.066 357.722, 698.914 357.210, 696.794 356.642 C 695.532 356.304, 693.563 356.021, 692.417 356.014 C 691.271 356.006, 690.033 356.300, 689.667 356.667 M 710 360 C 710 363.897, 710.089 364, 713.465 364 C 715.867 364, 717.247 363.407, 717.965 362.066 C 718.534 361.002, 719 359.909, 719 359.637 C 719 359.365, 718.293 358.436, 717.429 357.571 C 716.564 356.707, 714.539 356, 712.929 356 C 710.179 356, 710 356.244, 710 360 M 751.627 358.250 C 750.847 359.488, 749.906 361.512, 749.537 362.750 C 748.902 364.876, 749.145 365, 753.933 365 C 756.720 365, 759 364.579, 759 364.065 C 759 363.551, 758.522 361.873, 757.937 360.335 C 757.353 358.798, 756.341 357.201, 755.687 356.786 C 755.034 356.370, 754.173 356.024, 753.773 356.015 C 753.373 356.007, 752.408 357.012, 751.627 358.250 M 822.200 357.200 C 821.540 357.860, 821 360.796, 821 363.725 C 821 368.484, 821.265 369.150, 823.500 370 C 825.080 370.601, 826.920 370.601, 828.500 370 C 830.778 369.134, 831 368.524, 831 363.132 C 831 358.658, 830.614 357.066, 829.418 356.607 C 828.548 356.273, 826.838 356, 825.618 356 C 824.398 356, 822.860 356.540, 822.200 357.200 M 891 359.500 C 891 362.535, 891.321 363, 893.418 363 C 894.748 363, 896.548 362.727, 897.418 362.393 C 898.288 362.059, 899 360.950, 899 359.928 C 899 358.906, 898.130 357.605, 897.066 357.035 C 896.002 356.466, 894.202 356, 893.066 356 C 891.372 356, 891 356.630, 891 359.500 M 985 360.060 L 985 364.121 988.750 363.810 C 991.860 363.553, 992.559 363.083, 992.845 361.056 C 993.057 359.554, 992.502 358.109, 991.404 357.306 C 990.421 356.588, 988.579 356, 987.309 356 C 985.276 356, 985 356.486, 985 360.060 M 181 371.329 L 181 384.659 192.155 391.079 C 198.290 394.611, 203.690 397.650, 204.155 397.833 C 204.620 398.017, 205 392.099, 205 384.683 L 205 371.199 193.635 364.600 C 187.384 360.970, 181.984 358, 181.635 358 C 181.286 358, 181 363.998, 181 371.329 M 240.250 364.830 L 229 371.453 229 384.726 C 229 392.027, 229.245 398, 229.544 398 C 229.843 398, 235.243 395.016, 241.544 391.368 L 253 384.736 253 371.368 C 253 364.016, 252.662 358.047, 252.250 358.104 C 251.838 358.161, 246.438 361.188, 240.250 364.830 M 440 359.500 C 440 360.333, 440.889 361, 442 361 C 443.111 361, 444 360.333, 444 359.500 C 444 358.667, 443.111 358, 442 358 C 440.889 358, 440 358.667, 440 359.500 M 518 363.500 C 518 368.130, 518.285 369, 519.800 369 C 520.790 369, 522.140 368.460, 522.800 367.800 C 523.460 367.140, 524 365.377, 524 363.882 C 524 362.387, 523.727 360.452, 523.393 359.582 C 523.059 358.712, 521.709 358, 520.393 358 C 518.159 358, 518 358.366, 518 363.500 M 622.607 359.582 C 622.273 360.452, 622.007 362.364, 622.015 363.832 C 622.024 365.299, 622.415 367.107, 622.885 367.848 C 623.355 368.590, 624.586 369.036, 625.620 368.839 C 627.126 368.552, 627.560 367.439, 627.802 363.241 C 628.089 358.266, 627.980 358, 625.659 358 C 624.314 358, 622.941 358.712, 622.607 359.582 M 664 360 C 664 361.646, 664.518 362.065, 666.250 361.820 C 667.487 361.644, 668.500 360.825, 668.500 360 C 668.500 359.175, 667.487 358.356, 666.250 358.180 C 664.518 357.935, 664 358.354, 664 360 M 692 363.570 C 692 368.773, 692.148 369.118, 694.250 368.820 C 696.210 368.541, 696.539 367.824, 696.802 363.250 C 697.092 358.209, 697.003 358, 694.552 358 C 692.121 358, 692 358.265, 692 363.570 M 713 360 C 713 361.506, 713.522 362.046, 714.750 361.810 C 715.712 361.624, 716.500 360.810, 716.500 360 C 716.500 359.190, 715.712 358.376, 714.750 358.190 C 713.522 357.954, 713 358.494, 713 360 M 752.623 359.540 C 752.280 360.433, 752 361.802, 752 362.582 C 752 363.414, 752.997 364, 754.414 364 C 756.544 364, 756.743 363.685, 756.109 361.315 C 755.714 359.838, 754.908 358.469, 754.319 358.273 C 753.729 358.076, 752.966 358.646, 752.623 359.540 M 823.667 358.667 C 823.300 359.033, 823.007 360.946, 823.015 362.917 C 823.024 364.887, 823.415 367.107, 823.885 367.848 C 824.355 368.590, 825.586 369.036, 826.620 368.839 C 828.126 368.552, 828.560 367.439, 828.802 363.241 C 829.087 358.300, 828.968 358, 826.719 358 C 825.407 358, 824.033 358.300, 823.667 358.667 M 893 359.500 C 893 360.333, 893.889 361, 895 361 C 896.111 361, 897 360.333, 897 359.500 C 897 358.667, 896.111 358, 895 358 C 893.889 358, 893 358.667, 893 359.500 M 987 360 C 987 361.333, 987.667 362, 989 362 C 990.333 362, 991 361.333, 991 360 C 991 358.667, 990.333 358, 989 358 C 987.667 358, 987 358.667, 987 360 M 438 367 C 438 370.086, 438.036 370.107, 442.750 369.805 C 447.069 369.528, 447.500 369.273, 447.500 367 C 447.500 364.727, 447.069 364.472, 442.750 364.195 C 438.036 363.893, 438 363.914, 438 367 M 891 367 C 891 370.086, 891.036 370.107, 895.750 369.805 C 900.069 369.528, 900.500 369.273, 900.500 367 C 900.500 364.727, 900.069 364.472, 895.750 364.195 C 891.036 363.893, 891 363.914, 891 367 M 440 367 C 440 368.737, 440.511 369.074, 442.750 368.816 C 444.387 368.628, 445.500 367.893, 445.500 367 C 445.500 366.107, 444.387 365.372, 442.750 365.184 C 440.511 364.926, 440 365.263, 440 367 M 893 367 C 893 368.467, 893.667 369, 895.500 369 C 897.333 369, 898 368.467, 898 367 C 898 365.533, 897.333 365, 895.500 365 C 893.667 365, 893 365.533, 893 367" stroke="none" fill="#fbfbfb" fill-rule="evenodd"/></svg>